<?xml version="1.0" encoding="UTF-8"?>
<svg xmlns="http://www.w3.org/2000/svg" viewBox="0 0 1900 870">
  <defs>
    <linearGradient id="globalLbGrad" x1="0%" y1="0%" x2="100%" y2="100%">
      <stop offset="0%" style="stop-color:#1a237e;stop-opacity:1" />
      <stop offset="100%" style="stop-color:#3949ab;stop-opacity:1" />
    </linearGradient>
    <linearGradient id="regionalLbGrad" x1="0%" y1="0%" x2="100%" y2="100%">
      <stop offset="0%" style="stop-color:#00695c;stop-opacity:1" />
      <stop offset="100%" style="stop-color:#26a69a;stop-opacity:1" />
    </linearGradient>
    <linearGradient id="controlPlaneGrad" x1="0%" y1="0%" x2="100%" y2="100%">
      <stop offset="0%" style="stop-color:#6a1b9a;stop-opacity:1" />
      <stop offset="100%" style="stop-color:#ab47bc;stop-opacity:1" />
    </linearGradient>
    <linearGradient id="redisGrad" x1="0%" y1="0%" x2="100%" y2="100%">
      <stop offset="0%" style="stop-color:#c62828;stop-opacity:1" />
      <stop offset="100%" style="stop-color:#ef5350;stop-opacity:1" />
    </linearGradient>
    <linearGradient id="esGrad" x1="0%" y1="0%" x2="100%" y2="100%">
      <stop offset="0%" style="stop-color:#f57f17;stop-opacity:1" />
      <stop offset="100%" style="stop-color:#ffca28;stop-opacity:1" />
    </linearGradient>
    <linearGradient id="dbGrad" x1="0%" y1="0%" x2="100%" y2="100%">
      <stop offset="0%" style="stop-color:#4527a0;stop-opacity:1" />
      <stop offset="100%" style="stop-color:#7e57c2;stop-opacity:1" />
    </linearGradient>
    <linearGradient id="openamGrad" x1="0%" y1="0%" x2="100%" y2="100%">
      <stop offset="0%" style="stop-color:#e65100;stop-opacity:1" />
      <stop offset="100%" style="stop-color:#ff9800;stop-opacity:1" />
    </linearGradient>
    <linearGradient id="nodeGrad" x1="0%" y1="0%" x2="100%" y2="100%">
      <stop offset="0%" style="stop-color:#1565c0;stop-opacity:1" />
      <stop offset="100%" style="stop-color:#42a5f5;stop-opacity:1" />
    </linearGradient>
    <linearGradient id="coreZoneGrad" x1="0%" y1="0%" x2="0%" y2="100%">
      <stop offset="0%" style="stop-color:#e8f5e9;stop-opacity:1" />
      <stop offset="100%" style="stop-color:#c8e6c9;stop-opacity:1" />
    </linearGradient>
    <linearGradient id="jszZoneGrad" x1="0%" y1="0%" x2="0%" y2="100%">
      <stop offset="0%" style="stop-color:#fff3e0;stop-opacity:1" />
      <stop offset="100%" style="stop-color:#ffe0b2;stop-opacity:1" />
    </linearGradient>
    <linearGradient id="userGrad" x1="0%" y1="0%" x2="100%" y2="100%">
      <stop offset="0%" style="stop-color:#546e7a;stop-opacity:1" />
      <stop offset="100%" style="stop-color:#78909c;stop-opacity:1" />
    </linearGradient>
    <linearGradient id="scpGrad" x1="0%" y1="0%" x2="0%" y2="100%">
      <stop offset="0%" style="stop-color:#e3f2fd;stop-opacity:1" />
      <stop offset="100%" style="stop-color:#bbdefb;stop-opacity:1" />
    </linearGradient>

    <filter id="shadow" x="-20%" y="-20%" width="140%" height="140%">
      <feDropShadow dx="2" dy="2" stdDeviation="3" flood-opacity="0.3"/>
    </filter>

    <marker id="arrowBlue" markerWidth="10" markerHeight="10" refX="9" refY="3" orient="auto" markerUnits="strokeWidth">
      <path d="M0,0 L0,6 L9,3 z" fill="#1976d2"/>
    </marker>
    <marker id="arrowGreen" markerWidth="10" markerHeight="10" refX="9" refY="3" orient="auto" markerUnits="strokeWidth">
      <path d="M0,0 L0,6 L9,3 z" fill="#2e7d32"/>
    </marker>
    <marker id="arrowOrange" markerWidth="10" markerHeight="10" refX="9" refY="3" orient="auto" markerUnits="strokeWidth">
      <path d="M0,0 L0,6 L9,3 z" fill="#ef6c00"/>
    </marker>
    <marker id="arrowPurple" markerWidth="10" markerHeight="10" refX="9" refY="3" orient="auto" markerUnits="strokeWidth">
      <path d="M0,0 L0,6 L9,3 z" fill="#7b1fa2"/>
    </marker>
    <marker id="arrowRed" markerWidth="10" markerHeight="10" refX="9" refY="3" orient="auto" markerUnits="strokeWidth">
      <path d="M0,0 L0,6 L9,3 z" fill="#c62828"/>
    </marker>
    <marker id="arrowTeal" markerWidth="10" markerHeight="10" refX="9" refY="3" orient="auto" markerUnits="strokeWidth">
      <path d="M0,0 L0,6 L9,3 z" fill="#00695c"/>
    </marker>
  </defs>

  <!-- Background -->
  <rect width="1900" height="870" fill="#fafafa"/>

  <!-- Title -->
  <text x="950" y="28" text-anchor="middle" font-family="Arial, sans-serif" font-size="22" font-weight="bold" fill="#1a237e">
    Combined Architecture &#x2014; Core Zone + JSZ Zone
  </text>
  <text x="950" y="48" text-anchor="middle" font-family="Arial, sans-serif" font-size="12" fill="#616161">
    Core Zone (K8s): Control Plane + Data Plane | MySQL + Elasticsearch (External to K8s) | Firewall | JSZ Zone (VM): Gateway + Redis
  </text>

  <!-- ================================================================== -->
  <!--                         CORE ZONE (LEFT)                            -->
  <!-- ================================================================== -->
  <rect x="15" y="60" width="870" height="505" rx="15" fill="url(#coreZoneGrad)" stroke="#2e7d32" stroke-width="3"/>
  <rect x="15" y="60" width="42" height="505" rx="15 0 0 15" fill="#2e7d32"/>
  <text transform="translate(28, 360) rotate(-90)" font-family="Arial, sans-serif" font-size="16" font-weight="bold" fill="white">CORE ZONE</text>

  <text x="480" y="82" text-anchor="middle" font-family="Arial, sans-serif" font-size="12" font-weight="bold" fill="#1b5e20">
    CORE ZONE &#x2014; Single Zone Deployment (All Components Internal)
  </text>

  <!-- ===== CORPORATE USERS ===== -->
  <rect x="70" y="92" width="580" height="65" rx="8" fill="white" stroke="#546e7a" stroke-width="1" filter="url(#shadow)"/>
  <text x="360" y="110" text-anchor="middle" font-family="Arial, sans-serif" font-size="11" font-weight="bold" fill="#37474f">CORPORATE USERS</text>

  <rect x="80" y="118" width="105" height="32" rx="4" fill="url(#userGrad)" filter="url(#shadow)"/>
  <text x="133" y="135" text-anchor="middle" font-family="Arial, sans-serif" font-size="8" font-weight="bold" fill="white">API Developers</text>
  <text x="133" y="145" text-anchor="middle" font-family="Arial, sans-serif" font-size="6" fill="#cfd8dc">Console :443</text>

  <rect x="195" y="118" width="105" height="32" rx="4" fill="url(#userGrad)" filter="url(#shadow)"/>
  <text x="248" y="135" text-anchor="middle" font-family="Arial, sans-serif" font-size="8" font-weight="bold" fill="white">Platform Team</text>
  <text x="248" y="145" text-anchor="middle" font-family="Arial, sans-serif" font-size="6" fill="#cfd8dc">Admin :443</text>

  <rect x="310" y="118" width="105" height="32" rx="4" fill="url(#userGrad)" filter="url(#shadow)"/>
  <text x="363" y="135" text-anchor="middle" font-family="Arial, sans-serif" font-size="8" font-weight="bold" fill="white">App Developers</text>
  <text x="363" y="145" text-anchor="middle" font-family="Arial, sans-serif" font-size="6" fill="#cfd8dc">Portal :443</text>

  <rect x="425" y="118" width="105" height="32" rx="4" fill="#455a64" filter="url(#shadow)"/>
  <text x="478" y="135" text-anchor="middle" font-family="Arial, sans-serif" font-size="8" font-weight="bold" fill="white">Consumer Apps</text>
  <text x="478" y="145" text-anchor="middle" font-family="Arial, sans-serif" font-size="6" fill="#b0bec5">Services :8082</text>

  <rect x="540" y="118" width="100" height="32" rx="4" fill="#455a64" filter="url(#shadow)"/>
  <text x="590" y="135" text-anchor="middle" font-family="Arial, sans-serif" font-size="8" font-weight="bold" fill="white">Internal Sys</text>
  <text x="590" y="145" text-anchor="middle" font-family="Arial, sans-serif" font-size="6" fill="#b0bec5">Svc Accounts</text>

  <!-- ===== OPENAM SSO ===== -->
  <rect x="660" y="92" width="210" height="65" rx="8" fill="white" stroke="#e65100" stroke-width="2" filter="url(#shadow)"/>
  <rect x="660" y="92" width="210" height="22" rx="8 8 0 0" fill="url(#openamGrad)"/>
  <text x="765" y="108" text-anchor="middle" font-family="Arial, sans-serif" font-size="10" font-weight="bold" fill="white">OpenAM SSO</text>
  <text x="765" y="127" text-anchor="middle" font-family="Arial, sans-serif" font-size="8" fill="#424242">OAuth 2.0 / OIDC Provider</text>
  <text x="765" y="140" text-anchor="middle" font-family="Arial, sans-serif" font-size="7" fill="#757575">LDAP/AD | HTTPS :443</text>
  <text x="765" y="152" text-anchor="middle" font-family="Arial, sans-serif" font-size="6" fill="#9e9e9e">/authorize | /token | /introspect | /jwks</text>

  <!-- ===== DATA PLANE &#x2014; Internal API Gateway ===== -->
  <rect x="70" y="168" width="430" height="310" rx="10" fill="#e3f2fd" stroke="#1976d2" stroke-width="2" filter="url(#shadow)"/>
  <text x="285" y="188" text-anchor="middle" font-family="Arial, sans-serif" font-size="11" font-weight="bold" fill="#1565c0">
    DATA PLANE &#x2014; Internal API Gateway (K8s Cluster)
  </text>

  <!-- K8s Badge on Data Plane -->
  <rect x="420" y="170" width="70" height="16" rx="8" fill="#326ce5"/>
  <text x="455" y="182" text-anchor="middle" font-family="Arial, sans-serif" font-size="8" font-weight="bold" fill="white">&#x2638; K8s</text>

  <!-- Global LB -->
  <rect x="85" y="198" width="130" height="36" rx="6" fill="url(#globalLbGrad)" filter="url(#shadow)"/>
  <text x="150" y="215" text-anchor="middle" font-family="Arial, sans-serif" font-size="9" font-weight="bold" fill="white">Global LB (GSLB)</text>
  <text x="150" y="228" text-anchor="middle" font-family="Arial, sans-serif" font-size="7" fill="#bbdefb">Internal</text>

  <!-- US Region -->
  <rect x="85" y="242" width="128" height="130" rx="6" fill="#e8f5e9" stroke="#2e7d32" stroke-width="1.5"/>
  <text x="149" y="257" text-anchor="middle" font-family="Arial, sans-serif" font-size="9" font-weight="bold" fill="#1b5e20">US REGION</text>
  <rect x="92" y="264" width="55" height="18" rx="3" fill="url(#regionalLbGrad)"/>
  <text x="120" y="276" text-anchor="middle" font-family="Arial, sans-serif" font-size="6" font-weight="bold" fill="white">Reg LB</text>
  <rect x="92" y="286" width="55" height="32" rx="3" fill="url(#nodeGrad)"/>
  <text x="120" y="300" text-anchor="middle" font-family="Arial, sans-serif" font-size="6" font-weight="bold" fill="white">GW Node 1</text>
  <text x="120" y="312" text-anchor="middle" font-family="Arial, sans-serif" font-size="5" fill="#90caf9">:8082 (2 pods)</text>
  <rect x="152" y="286" width="55" height="32" rx="3" fill="url(#nodeGrad)"/>
  <text x="180" y="300" text-anchor="middle" font-family="Arial, sans-serif" font-size="6" font-weight="bold" fill="white">GW Node 2</text>
  <text x="180" y="312" text-anchor="middle" font-family="Arial, sans-serif" font-size="5" fill="#90caf9">:8082 (2 pods)</text>
  <rect x="92" y="322" width="115" height="26" rx="3" fill="url(#redisGrad)" filter="url(#shadow)"/>
  <text x="150" y="335" text-anchor="middle" font-family="Arial, sans-serif" font-size="6" font-weight="bold" fill="white">Redis (US)</text>
  <text x="150" y="345" text-anchor="middle" font-family="Arial, sans-serif" font-size="5" fill="#ffcdd2">Rate Limit :6379</text>
  <path d="M 120 318 L 120 322" stroke="#c62828" stroke-width="1" fill="none" marker-end="url(#arrowRed)" stroke-dasharray="2,1"/>
  <path d="M 180 318 L 180 322" stroke="#c62828" stroke-width="1" fill="none" marker-end="url(#arrowRed)" stroke-dasharray="2,1"/>

  <!-- EU Region -->
  <rect x="222" y="242" width="128" height="130" rx="6" fill="#fff3e0" stroke="#ef6c00" stroke-width="1.5"/>
  <text x="286" y="257" text-anchor="middle" font-family="Arial, sans-serif" font-size="9" font-weight="bold" fill="#e65100">EU REGION</text>
  <rect x="229" y="264" width="55" height="18" rx="3" fill="url(#regionalLbGrad)"/>
  <text x="257" y="276" text-anchor="middle" font-family="Arial, sans-serif" font-size="6" font-weight="bold" fill="white">Reg LB</text>
  <rect x="229" y="286" width="55" height="32" rx="3" fill="url(#nodeGrad)"/>
  <text x="257" y="300" text-anchor="middle" font-family="Arial, sans-serif" font-size="6" font-weight="bold" fill="white">GW Node 1</text>
  <text x="257" y="312" text-anchor="middle" font-family="Arial, sans-serif" font-size="5" fill="#90caf9">:8082 (2 pods)</text>
  <rect x="289" y="286" width="55" height="32" rx="3" fill="url(#nodeGrad)"/>
  <text x="317" y="300" text-anchor="middle" font-family="Arial, sans-serif" font-size="6" font-weight="bold" fill="white">GW Node 2</text>
  <text x="317" y="312" text-anchor="middle" font-family="Arial, sans-serif" font-size="5" fill="#90caf9">:8082 (2 pods)</text>
  <rect x="229" y="322" width="115" height="26" rx="3" fill="url(#redisGrad)" filter="url(#shadow)"/>
  <text x="287" y="335" text-anchor="middle" font-family="Arial, sans-serif" font-size="6" font-weight="bold" fill="white">Redis (EU)</text>
  <text x="287" y="345" text-anchor="middle" font-family="Arial, sans-serif" font-size="5" fill="#ffcdd2">Rate Limit :6379</text>
  <path d="M 257 318 L 257 322" stroke="#c62828" stroke-width="1" fill="none" marker-end="url(#arrowRed)" stroke-dasharray="2,1"/>
  <path d="M 317 318 L 317 322" stroke="#c62828" stroke-width="1" fill="none" marker-end="url(#arrowRed)" stroke-dasharray="2,1"/>

  <!-- ASIA Region -->
  <rect x="359" y="242" width="128" height="130" rx="6" fill="#fce4ec" stroke="#c2185b" stroke-width="1.5"/>
  <text x="423" y="257" text-anchor="middle" font-family="Arial, sans-serif" font-size="9" font-weight="bold" fill="#880e4f">ASIA REGION</text>
  <rect x="366" y="264" width="55" height="18" rx="3" fill="url(#regionalLbGrad)"/>
  <text x="394" y="276" text-anchor="middle" font-family="Arial, sans-serif" font-size="6" font-weight="bold" fill="white">Reg LB</text>
  <rect x="366" y="286" width="55" height="32" rx="3" fill="url(#nodeGrad)"/>
  <text x="394" y="300" text-anchor="middle" font-family="Arial, sans-serif" font-size="6" font-weight="bold" fill="white">GW Node 1</text>
  <text x="394" y="312" text-anchor="middle" font-family="Arial, sans-serif" font-size="5" fill="#90caf9">:8082 (2 pods)</text>
  <rect x="426" y="286" width="55" height="32" rx="3" fill="url(#nodeGrad)"/>
  <text x="454" y="300" text-anchor="middle" font-family="Arial, sans-serif" font-size="6" font-weight="bold" fill="white">GW Node 2</text>
  <text x="454" y="312" text-anchor="middle" font-family="Arial, sans-serif" font-size="5" fill="#90caf9">:8082 (2 pods)</text>
  <rect x="366" y="322" width="115" height="26" rx="3" fill="url(#redisGrad)" filter="url(#shadow)"/>
  <text x="424" y="335" text-anchor="middle" font-family="Arial, sans-serif" font-size="6" font-weight="bold" fill="white">Redis (ASIA)</text>
  <text x="424" y="345" text-anchor="middle" font-family="Arial, sans-serif" font-size="5" fill="#ffcdd2">Rate Limit :6379</text>
  <path d="M 394 318 L 394 322" stroke="#c62828" stroke-width="1" fill="none" marker-end="url(#arrowRed)" stroke-dasharray="2,1"/>
  <path d="M 454 318 L 454 322" stroke="#c62828" stroke-width="1" fill="none" marker-end="url(#arrowRed)" stroke-dasharray="2,1"/>

  <!-- Security / Policy Layers -->
  <rect x="85" y="380" width="403" height="16" rx="4" fill="#00695c"/>
  <text x="287" y="392" text-anchor="middle" font-family="Arial, sans-serif" font-size="7" font-weight="bold" fill="white">TLS 1.2/1.3 | mTLS | JWT Validation | Rate Limiting | IP Filtering</text>

  <rect x="85" y="399" width="403" height="16" rx="4" fill="#37474f"/>
  <text x="287" y="411" text-anchor="middle" font-family="Arial, sans-serif" font-size="7" font-weight="bold" fill="white">Policies: Transform | Cache | Quota | Circuit Breaker | Logging</text>

  <rect x="85" y="418" width="403" height="16" rx="4" fill="#546e7a"/>
  <text x="287" y="430" text-anchor="middle" font-family="Arial, sans-serif" font-size="7" font-weight="bold" fill="white">Analytics Collection | Request/Response Logging | Metrics Export</text>

  <!-- ===== CONTROL PLANE ===== -->
  <rect x="510" y="168" width="360" height="210" rx="10" fill="#f3e5f5" stroke="#7b1fa2" stroke-width="2" filter="url(#shadow)"/>
  <text x="690" y="188" text-anchor="middle" font-family="Arial, sans-serif" font-size="11" font-weight="bold" fill="#6a1b9a">
    CONTROL PLANE &#x2014; Kubernetes Cluster
  </text>

  <!-- K8s Badge on Control Plane -->
  <rect x="790" y="170" width="70" height="16" rx="8" fill="#326ce5"/>
  <text x="825" y="182" text-anchor="middle" font-family="Arial, sans-serif" font-size="8" font-weight="bold" fill="white">&#x2638; K8s</text>

  <!-- Console UI -->
  <rect x="525" y="198" width="160" height="48" rx="4" fill="#9c27b0" stroke="#4a148c" stroke-width="1" filter="url(#shadow)"/>
  <text x="605" y="218" text-anchor="middle" font-family="Arial, sans-serif" font-size="9" font-weight="bold" fill="white">Console UI</text>
  <text x="605" y="230" text-anchor="middle" font-family="Arial, sans-serif" font-size="7" fill="#e1bee7">Management Interface</text>
  <text x="605" y="241" text-anchor="middle" font-family="Arial, sans-serif" font-size="6" fill="#ce93d8">HTTPS :443 | 2 Replicas</text>

  <!-- Management API -->
  <rect x="695" y="198" width="160" height="48" rx="4" fill="#9c27b0" stroke="#4a148c" stroke-width="1" filter="url(#shadow)"/>
  <text x="775" y="218" text-anchor="middle" font-family="Arial, sans-serif" font-size="9" font-weight="bold" fill="white">Management API</text>
  <text x="775" y="230" text-anchor="middle" font-family="Arial, sans-serif" font-size="7" fill="#e1bee7">REST API Backend</text>
  <text x="775" y="241" text-anchor="middle" font-family="Arial, sans-serif" font-size="6" fill="#ce93d8">HTTPS :8083 | 2 Replicas</text>

  <!-- Developer Portal -->
  <rect x="525" y="254" width="330" height="42" rx="4" fill="#9c27b0" stroke="#4a148c" stroke-width="1" filter="url(#shadow)"/>
  <text x="690" y="272" text-anchor="middle" font-family="Arial, sans-serif" font-size="9" font-weight="bold" fill="white">Developer Portal</text>
  <text x="690" y="284" text-anchor="middle" font-family="Arial, sans-serif" font-size="7" fill="#e1bee7">API Catalog | HTTPS :443 | 2 Replicas</text>

  <!-- Redis note -->
  <rect x="525" y="304" width="330" height="18" rx="4" fill="#fff8e1" stroke="#f9a825"/>
  <text x="690" y="317" text-anchor="middle" font-family="Arial, sans-serif" font-size="7" font-weight="bold" fill="#f57f17">Redis co-located in each Gateway Cluster &#x2014; NOT in Control Plane</text>

  <!-- Infra Services -->
  <rect x="525" y="328" width="330" height="26" rx="4" fill="white" stroke="#9e9e9e" stroke-width="1"/>
  <text x="690" y="340" text-anchor="middle" font-family="Arial, sans-serif" font-size="8" font-weight="bold" fill="#37474f">Infrastructure Services</text>
  <text x="690" y="350" text-anchor="middle" font-family="Arial, sans-serif" font-size="6" fill="#616161">NTP :123 | DNS :53 | LDAP :636 | SMTP :25 | PKI/CA | K8s :6443</text>

  <!-- RBAC Banner -->
  <rect x="525" y="360" width="330" height="16" rx="4" fill="#311b92"/>
  <text x="690" y="372" text-anchor="middle" font-family="Arial, sans-serif" font-size="7" font-weight="bold" fill="white">RBAC: Group Permissions | Sharding Tags | Environment Separation</text>

  <!-- ===== ELASTICSEARCH CLUSTER (External) ===== -->
  <rect x="510" y="390" width="360" height="52" rx="10" fill="white" stroke="#f57f17" stroke-width="2" filter="url(#shadow)"/>
  <rect x="510" y="390" width="360" height="22" rx="10 10 0 0" fill="url(#esGrad)"/>
  <text x="690" y="406" text-anchor="middle" font-family="Arial, sans-serif" font-size="10" font-weight="bold" fill="#3e2723">
    Elasticsearch Cluster (Core Zone &#x2014; External to K8s)
  </text>
  <text x="690" y="430" text-anchor="middle" font-family="Arial, sans-serif" font-size="8" fill="#5d4037">Analytics | Logs | Metrics | :9200 | 3 nodes | REST API</text>

  <!-- ===== MYSQL CLUSTER (External) ===== -->
  <rect x="70" y="448" width="430" height="100" rx="10" fill="white" stroke="#4527a0" stroke-width="2" filter="url(#shadow)"/>
  <rect x="70" y="448" width="430" height="24" rx="10 10 0 0" fill="url(#dbGrad)"/>
  <text x="285" y="464" text-anchor="middle" font-family="Arial, sans-serif" font-size="10" font-weight="bold" fill="white">
    MySQL Cluster (Core Zone &#x2014; External to K8s)
  </text>

  <rect x="85" y="480" width="125" height="40" rx="4" fill="#ede7f6" stroke="#7e57c2" stroke-width="1"/>
  <text x="148" y="498" text-anchor="middle" font-family="Arial, sans-serif" font-size="9" font-weight="bold" fill="#4527a0">Primary</text>
  <text x="148" y="512" text-anchor="middle" font-family="Arial, sans-serif" font-size="7" fill="#757575">R/W | :3306</text>

  <rect x="220" y="480" width="125" height="40" rx="4" fill="#ede7f6" stroke="#7e57c2" stroke-width="1"/>
  <text x="283" y="498" text-anchor="middle" font-family="Arial, sans-serif" font-size="9" font-weight="bold" fill="#4527a0">Replica 1</text>
  <text x="283" y="512" text-anchor="middle" font-family="Arial, sans-serif" font-size="7" fill="#757575">Read | :3306</text>

  <rect x="355" y="480" width="125" height="40" rx="4" fill="#ede7f6" stroke="#7e57c2" stroke-width="1"/>
  <text x="418" y="498" text-anchor="middle" font-family="Arial, sans-serif" font-size="9" font-weight="bold" fill="#4527a0">Replica 2</text>
  <text x="418" y="512" text-anchor="middle" font-family="Arial, sans-serif" font-size="7" fill="#757575">Read | :3306</text>

  <text x="285" y="542" text-anchor="middle" font-family="Arial, sans-serif" font-size="7" fill="#616161">
    API Definitions | Plans | Subscriptions | Users | Audit Logs | TLS | InnoDB Cluster
  </text>

  <!-- ===== BACKEND SERVICES (Core Zone) ===== -->
  <rect x="510" y="448" width="360" height="100" rx="10" fill="white" stroke="#263238" stroke-width="2" filter="url(#shadow)"/>
  <text x="690" y="467" text-anchor="middle" font-family="Arial, sans-serif" font-size="10" font-weight="bold" fill="#263238">
    BACKEND SERVICES (Core Zone)
  </text>

  <rect x="525" y="478" width="105" height="38" rx="4" fill="#eceff1" stroke="#607d8b"/>
  <text x="578" y="496" text-anchor="middle" font-family="Arial, sans-serif" font-size="8" font-weight="bold" fill="#424242">Microservices</text>
  <text x="578" y="508" text-anchor="middle" font-family="Arial, sans-serif" font-size="6" fill="#757575">REST/gRPC</text>

  <rect x="640" y="478" width="105" height="38" rx="4" fill="#eceff1" stroke="#607d8b"/>
  <text x="693" y="496" text-anchor="middle" font-family="Arial, sans-serif" font-size="8" font-weight="bold" fill="#424242">Legacy Systems</text>
  <text x="693" y="508" text-anchor="middle" font-family="Arial, sans-serif" font-size="6" fill="#757575">SOAP/EAI</text>

  <rect x="755" y="478" width="100" height="38" rx="4" fill="#eceff1" stroke="#607d8b"/>
  <text x="805" y="496" text-anchor="middle" font-family="Arial, sans-serif" font-size="8" font-weight="bold" fill="#424242">Message Queues</text>
  <text x="805" y="508" text-anchor="middle" font-family="Arial, sans-serif" font-size="6" fill="#757575">Kafka/RabbitMQ</text>

  <!-- ===== CORE ZONE FLOW ARROWS ===== -->

  <!-- Users to OpenAM -->
  <path d="M 248 150 L 248 160 L 660 160 L 660 125" stroke="#e65100" stroke-width="1.5" fill="none" marker-end="url(#arrowOrange)"/>
  <circle cx="450" cy="160" r="8" fill="#e65100"/>
  <text x="450" y="163" text-anchor="middle" font-family="Arial, sans-serif" font-size="7" font-weight="bold" fill="white">1</text>

  <!-- Consumer Apps to GSLB -->
  <path d="M 478 150 L 478 160 L 150 160 L 150 198" stroke="#1976d2" stroke-width="1.5" fill="none" marker-end="url(#arrowBlue)"/>
  <circle cx="310" cy="160" r="8" fill="#1976d2"/>
  <text x="310" y="163" text-anchor="middle" font-family="Arial, sans-serif" font-size="7" font-weight="bold" fill="white">2</text>

  <!-- GSLB to Regional LBs -->
  <path d="M 150 234 L 150 238 L 120 238 L 120 264" stroke="#2e7d32" stroke-width="1.5" fill="none" marker-end="url(#arrowGreen)"/>
  <path d="M 150 238 L 257 238 L 257 264" stroke="#2e7d32" stroke-width="1.5" fill="none" marker-end="url(#arrowGreen)"/>
  <path d="M 150 238 L 394 238 L 394 264" stroke="#2e7d32" stroke-width="1.5" fill="none" marker-end="url(#arrowGreen)"/>

  <!-- Control Plane to OpenAM -->
  <path d="M 605 198 L 605 190 L 730 190 L 730 157" stroke="#e65100" stroke-width="1.5" fill="none" stroke-dasharray="4,2"/>
  <text x="665" y="185" font-family="Arial, sans-serif" font-size="6" fill="#e65100">OAuth Login</text>

  <!-- Control Plane to MySQL -->
  <path d="M 690 378 L 690 385 L 500 385 L 285 385 L 285 448" stroke="#4527a0" stroke-width="1.5" fill="none" marker-end="url(#arrowPurple)" stroke-dasharray="6,3"/>
  <circle cx="500" cy="385" r="8" fill="#4527a0"/>
  <text x="500" y="388" text-anchor="middle" font-family="Arial, sans-serif" font-size="7" font-weight="bold" fill="white">5</text>

  <!-- Gateway to MySQL (Config Sync) -->
  <path d="M 287 436 L 287 448" stroke="#7b1fa2" stroke-width="1.5" fill="none" marker-end="url(#arrowPurple)" stroke-dasharray="6,3"/>

  <!-- Gateway to ES (Analytics) -->
  <path d="M 490 390 L 502 390 L 502 420 L 510 420" stroke="#f57f17" stroke-width="1.5" fill="none" marker-end="url(#arrowOrange)" stroke-dasharray="4,2"/>

  <!-- Gateway to Backends -->
  <path d="M 430 430 L 430 497 L 525 497" stroke="#455a64" stroke-width="1.5" fill="none" marker-end="url(#arrowBlue)"/>
  <circle cx="430" cy="465" r="8" fill="#455a64"/>
  <text x="430" y="468" text-anchor="middle" font-family="Arial, sans-serif" font-size="7" font-weight="bold" fill="white">7</text>

  <!-- ================================================================== -->
  <!--                         FIREWALL (CENTER)                            -->
  <!-- ================================================================== -->
  <rect x="887" y="60" width="56" height="505" rx="5" fill="#b71c1c" stroke="#7f0000" stroke-width="2"/>
  <rect x="893" y="68" width="44" height="489" fill="#d32f2f" rx="3"/>

  <!-- Firewall tick marks -->
  <rect x="900" y="100" width="30" height="6" fill="#ffcdd2" rx="2"/>
  <rect x="900" y="120" width="30" height="6" fill="#ffcdd2" rx="2"/>
  <rect x="900" y="140" width="30" height="6" fill="#ffcdd2" rx="2"/>
  <rect x="900" y="160" width="30" height="6" fill="#ffcdd2" rx="2"/>
  <rect x="900" y="180" width="30" height="6" fill="#ffcdd2" rx="2"/>
  <rect x="900" y="210" width="30" height="6" fill="#ffcdd2" rx="2"/>
  <rect x="900" y="230" width="30" height="6" fill="#ffcdd2" rx="2"/>
  <rect x="900" y="250" width="30" height="6" fill="#ffcdd2" rx="2"/>
  <rect x="900" y="270" width="30" height="6" fill="#ffcdd2" rx="2"/>
  <rect x="900" y="290" width="30" height="6" fill="#ffcdd2" rx="2"/>
  <rect x="900" y="320" width="30" height="6" fill="#ffcdd2" rx="2"/>
  <rect x="900" y="340" width="30" height="6" fill="#ffcdd2" rx="2"/>
  <rect x="900" y="360" width="30" height="6" fill="#ffcdd2" rx="2"/>
  <rect x="900" y="380" width="30" height="6" fill="#ffcdd2" rx="2"/>
  <rect x="900" y="400" width="30" height="6" fill="#ffcdd2" rx="2"/>
  <rect x="900" y="430" width="30" height="6" fill="#ffcdd2" rx="2"/>
  <rect x="900" y="450" width="30" height="6" fill="#ffcdd2" rx="2"/>
  <rect x="900" y="470" width="30" height="6" fill="#ffcdd2" rx="2"/>
  <rect x="900" y="490" width="30" height="6" fill="#ffcdd2" rx="2"/>
  <rect x="900" y="510" width="30" height="6" fill="#ffcdd2" rx="2"/>
  <rect x="900" y="540" width="30" height="6" fill="#ffcdd2" rx="2"/>

  <text transform="translate(910, 360) rotate(-90)" font-family="Arial, sans-serif" font-size="14" font-weight="bold" fill="white">FIREWALL</text>

  <!-- Firewall port labels -->
  <rect x="891" y="485" width="48" height="18" rx="3" fill="#ffcdd2" stroke="#c62828"/>
  <text x="915" y="498" text-anchor="middle" font-family="Arial, sans-serif" font-size="7" font-weight="bold" fill="#b71c1c">:3306</text>
  <rect x="891" y="325" width="48" height="18" rx="3" fill="#fff8e1" stroke="#f57f17"/>
  <text x="915" y="338" text-anchor="middle" font-family="Arial, sans-serif" font-size="7" font-weight="bold" fill="#e65100">:9200</text>

  <!-- ================================================================== -->
  <!--                         JSZ ZONE (RIGHT)                            -->
  <!-- ================================================================== -->
  <rect x="945" y="60" width="940" height="555" rx="15" fill="url(#jszZoneGrad)" stroke="#ef6c00" stroke-width="3"/>
  <rect x="945" y="60" width="42" height="555" rx="15 0 0 15" fill="#ef6c00"/>
  <text transform="translate(957, 380) rotate(-90)" font-family="Arial, sans-serif" font-size="16" font-weight="bold" fill="white">JSZ ZONE</text>

  <text x="1415" y="82" text-anchor="middle" font-family="Arial, sans-serif" font-size="12" font-weight="bold" fill="#e65100">
    JSZ ZONE &#x2014; Japan Security Zone (VM-Based API Gateway)
  </text>

  <!-- ===== SCP &#x2014; Gateway + Redis ===== -->
  <rect x="1000" y="92" width="870" height="225" rx="10" fill="url(#scpGrad)" stroke="#1976d2" stroke-width="2" filter="url(#shadow)"/>
  <rect x="1000" y="92" width="35" height="225" rx="10 0 0 10" fill="#1976d2"/>
  <text transform="translate(1012, 230) rotate(-90)" font-family="Arial, sans-serif" font-size="10" font-weight="bold" fill="white">SCP</text>

  <text x="1435" y="112" text-anchor="middle" font-family="Arial, sans-serif" font-size="11" font-weight="bold" fill="#1565c0">
    SECURE CONTENT PROVIDER (SCP) &#x2014; VM-Based API Gateway
  </text>

  <!-- VM Badge on SCP -->
  <rect x="1400" y="96" width="60" height="16" rx="8" fill="#546e7a"/>
  <text x="1430" y="108" text-anchor="middle" font-family="Arial, sans-serif" font-size="8" font-weight="bold" fill="white">VM</text>

  <!-- JSZ Load Balancer -->
  <rect x="1050" y="125" width="200" height="40" rx="6" fill="url(#globalLbGrad)" filter="url(#shadow)"/>
  <text x="1150" y="144" text-anchor="middle" font-family="Arial, sans-serif" font-size="9" font-weight="bold" fill="white">Load Balancer</text>
  <text x="1150" y="158" text-anchor="middle" font-family="Arial, sans-serif" font-size="7" fill="#bbdefb">Active-Active | HTTPS :443</text>

  <!-- JSZ Gateway Node 1 -->
  <rect x="1050" y="175" width="200" height="80" rx="6" fill="url(#nodeGrad)" filter="url(#shadow)"/>
  <text x="1150" y="198" text-anchor="middle" font-family="Arial, sans-serif" font-size="10" font-weight="bold" fill="white">API Gateway Node 1</text>
  <text x="1150" y="213" text-anchor="middle" font-family="Arial, sans-serif" font-size="8" fill="#bbdefb">Gravitee Gateway (VM)</text>
  <text x="1150" y="228" text-anchor="middle" font-family="Arial, sans-serif" font-size="7" fill="#90caf9">HTTPS :8082 | VM Instance</text>
  <text x="1150" y="248" text-anchor="middle" font-family="Arial, sans-serif" font-size="6" fill="#e3f2fd">JWT | Transform | Cache | Logging</text>

  <!-- JSZ Gateway Node 2 -->
  <rect x="1270" y="175" width="200" height="80" rx="6" fill="url(#nodeGrad)" filter="url(#shadow)"/>
  <text x="1370" y="198" text-anchor="middle" font-family="Arial, sans-serif" font-size="10" font-weight="bold" fill="white">API Gateway Node 2</text>
  <text x="1370" y="213" text-anchor="middle" font-family="Arial, sans-serif" font-size="8" fill="#bbdefb">Gravitee Gateway (VM)</text>
  <text x="1370" y="228" text-anchor="middle" font-family="Arial, sans-serif" font-size="7" fill="#90caf9">HTTPS :8082 | VM Instance</text>
  <text x="1370" y="248" text-anchor="middle" font-family="Arial, sans-serif" font-size="6" fill="#e3f2fd">JWT | Transform | Cache | Logging</text>

  <!-- LB to Nodes -->
  <path d="M 1150 165 L 1150 175" stroke="#1976d2" stroke-width="2" fill="none" marker-end="url(#arrowBlue)"/>
  <path d="M 1250 145 L 1370 145 L 1370 175" stroke="#1976d2" stroke-width="2" fill="none" marker-end="url(#arrowBlue)"/>

  <!-- Security & Policy layers (inside SCP) -->
  <rect x="1050" y="265" width="420" height="14" rx="4" fill="#00695c"/>
  <text x="1260" y="275" text-anchor="middle" font-family="Arial, sans-serif" font-size="7" font-weight="bold" fill="white">TLS 1.2/1.3 | mTLS | JWT Validation | OAuth 2.0 | IP Filtering</text>

  <rect x="1050" y="282" width="420" height="14" rx="4" fill="#37474f"/>
  <text x="1260" y="292" text-anchor="middle" font-family="Arial, sans-serif" font-size="7" font-weight="bold" fill="white">Policies: Transform | Cache | Circuit Breaker | Mock | Logging</text>

  <rect x="1050" y="299" width="420" height="14" rx="4" fill="#546e7a"/>
  <text x="1260" y="309" text-anchor="middle" font-family="Arial, sans-serif" font-size="7" font-weight="bold" fill="white">Analytics Collection | Metrics Export</text>

  <!-- JSZ API Consumers -->
  <rect x="1500" y="125" width="350" height="185" rx="8" fill="white" stroke="#455a64" stroke-width="1" filter="url(#shadow)"/>
  <text x="1675" y="147" text-anchor="middle" font-family="Arial, sans-serif" font-size="10" font-weight="bold" fill="#37474f">JSZ API CONSUMERS</text>

  <rect x="1510" y="157" width="100" height="34" rx="4" fill="#455a64"/>
  <text x="1560" y="174" text-anchor="middle" font-family="Arial, sans-serif" font-size="8" font-weight="bold" fill="white">Microservices</text>
  <text x="1560" y="186" text-anchor="middle" font-family="Arial, sans-serif" font-size="6" fill="#b0bec5">Internal Apps</text>

  <rect x="1620" y="157" width="100" height="34" rx="4" fill="#455a64"/>
  <text x="1670" y="174" text-anchor="middle" font-family="Arial, sans-serif" font-size="8" font-weight="bold" fill="white">Partner Apps</text>
  <text x="1670" y="186" text-anchor="middle" font-family="Arial, sans-serif" font-size="6" fill="#b0bec5">B2B Clients</text>

  <rect x="1730" y="157" width="100" height="34" rx="4" fill="#455a64"/>
  <text x="1780" y="174" text-anchor="middle" font-family="Arial, sans-serif" font-size="8" font-weight="bold" fill="white">External Sys</text>
  <text x="1780" y="186" text-anchor="middle" font-family="Arial, sans-serif" font-size="6" fill="#b0bec5">mTLS | Svc Acct</text>

  <rect x="1510" y="200" width="320" height="34" rx="4" fill="#263238"/>
  <text x="1670" y="217" text-anchor="middle" font-family="Arial, sans-serif" font-size="8" font-weight="bold" fill="white">Mobile / Web Applications</text>
  <text x="1670" y="229" text-anchor="middle" font-family="Arial, sans-serif" font-size="6" fill="#78909c">OAuth 2.0 Bearer Tokens</text>

  <rect x="1510" y="242" width="320" height="28" rx="4" fill="#37474f"/>
  <text x="1670" y="260" text-anchor="middle" font-family="Arial, sans-serif" font-size="8" font-weight="bold" fill="white">Internal Systems | Service Accounts</text>

  <!-- Consumers to LB -->
  <path d="M 1500 220 L 1480 220 L 1480 145 L 1250 145" stroke="#1976d2" stroke-width="2" fill="none" marker-end="url(#arrowBlue)"/>
  <circle cx="1400" cy="145" r="10" fill="#1976d2"/>
  <text x="1400" y="149" text-anchor="middle" font-family="Arial, sans-serif" font-size="8" font-weight="bold" fill="white">A</text>

  <!-- ===== SDP &#x2014; Secure Data Provider (Redis) ===== -->
  <rect x="1000" y="326" width="480" height="85" rx="10" fill="#fce4ec" stroke="#c62828" stroke-width="2" filter="url(#shadow)"/>
  <rect x="1000" y="326" width="35" height="85" rx="10 0 0 10" fill="#c62828"/>
  <text transform="translate(1012, 385) rotate(-90)" font-family="Arial, sans-serif" font-size="9" font-weight="bold" fill="white">SDP</text>

  <text x="1240" y="344" text-anchor="middle" font-family="Arial, sans-serif" font-size="11" font-weight="bold" fill="#c62828">
    SECURE DATA PROVIDER (SDP)
  </text>

  <!-- Redis inside SDP -->
  <rect x="1050" y="354" width="410" height="45" rx="6" fill="url(#redisGrad)" filter="url(#shadow)"/>
  <text x="1255" y="373" text-anchor="middle" font-family="Arial, sans-serif" font-size="10" font-weight="bold" fill="white">Redis</text>
  <text x="1255" y="389" text-anchor="middle" font-family="Arial, sans-serif" font-size="8" fill="#ffcdd2">Rate Limiting | Caching | Session Store | TLS :6379</text>

  <!-- GW Node 1 to SDP Redis -->
  <path d="M 1150 255 L 1150 326 L 1150 354" stroke="#c62828" stroke-width="2" fill="none" marker-end="url(#arrowRed)" stroke-dasharray="4,2"/>
  <!-- GW Node 2 to SDP Redis -->
  <path d="M 1370 255 L 1370 326 L 1370 354" stroke="#c62828" stroke-width="2" fill="none" marker-end="url(#arrowRed)" stroke-dasharray="4,2"/>
  <text x="1260" y="340" text-anchor="middle" font-family="Arial, sans-serif" font-size="7" font-weight="bold" fill="#c62828">Rate Limit Check</text>

  <!-- ===== SYNC BANNER ===== -->
  <rect x="1000" y="420" width="870" height="50" rx="8" fill="#fff8e1" stroke="#f9a825" stroke-width="1" filter="url(#shadow)"/>
  <text x="1435" y="439" text-anchor="middle" font-family="Arial, sans-serif" font-size="10" font-weight="bold" fill="#f57f17">GATEWAY SYNCHRONIZATION (Cross-Zone via Firewall)</text>
  <text x="1435" y="454" text-anchor="middle" font-family="Arial, sans-serif" font-size="8" fill="#616161">Pull API Configs from MySQL (Core Zone :3306) | Push Analytics to Elasticsearch (Core Zone :9200)</text>
  <text x="1435" y="466" text-anchor="middle" font-family="Arial, sans-serif" font-size="7" font-weight="bold" fill="#c62828">Analytics events filtered &#x2014; NO PII/MNPI data leaves JSZ Zone</text>

  <!-- ===== PII/MNPI Data Zone ===== -->
  <rect x="1000" y="480" width="870" height="120" rx="10" fill="#fff3e0" stroke="#e65100" stroke-width="2" filter="url(#shadow)"/>
  <rect x="1000" y="480" width="870" height="25" rx="10 10 0 0" fill="#e65100"/>
  <text x="1435" y="497" text-anchor="middle" font-family="Arial, sans-serif" font-size="10" font-weight="bold" fill="white">PII / MNPI DATA ZONE &#x2014; Sensitive Data Remains in JSZ Only</text>

  <!-- JSZ Backend Services -->
  <rect x="1020" y="515" width="400" height="70" rx="6" fill="white" stroke="#263238" stroke-width="1"/>
  <text x="1220" y="537" text-anchor="middle" font-family="Arial, sans-serif" font-size="10" font-weight="bold" fill="#263238">JSZ Backend Services</text>
  <text x="1220" y="553" text-anchor="middle" font-family="Arial, sans-serif" font-size="8" fill="#616161">Japan Microservices | Local Processing</text>
  <text x="1220" y="568" text-anchor="middle" font-family="Arial, sans-serif" font-size="7" fill="#e65100">Contains PII/MNPI Data</text>
  <text x="1220" y="580" text-anchor="middle" font-family="Arial, sans-serif" font-size="6" fill="#9e9e9e">REST/gRPC | mTLS</text>

  <!-- JSZ Local Database -->
  <rect x="1440" y="515" width="400" height="70" rx="6" fill="#ffccbc" stroke="#e65100" stroke-width="1"/>
  <text x="1640" y="537" text-anchor="middle" font-family="Arial, sans-serif" font-size="10" font-weight="bold" fill="#bf360c">JSZ Local Database</text>
  <text x="1640" y="553" text-anchor="middle" font-family="Arial, sans-serif" font-size="8" fill="#616161">Customer PII | Financial MNPI | Compliance Data</text>
  <text x="1640" y="568" text-anchor="middle" font-family="Arial, sans-serif" font-size="7" fill="#c62828">Data Never Leaves JSZ Zone</text>
  <text x="1640" y="580" text-anchor="middle" font-family="Arial, sans-serif" font-size="6" fill="#9e9e9e">Encrypted at Rest | TLS :3306</text>

  <!-- Gateway to JSZ Backends -->
  <path d="M 1260 313 L 1260 420 L 1220 450 L 1220 480 L 1220 515" stroke="#455a64" stroke-width="2" fill="none" marker-end="url(#arrowBlue)"/>
  <circle cx="1220" cy="468" r="10" fill="#455a64"/>
  <text x="1220" y="472" text-anchor="middle" font-family="Arial, sans-serif" font-size="8" font-weight="bold" fill="white">D</text>

  <!-- ================================================================== -->
  <!--         CROSS-ZONE ARROWS (JSZ &#x2014; Firewall &#x2014; Core Zone)             -->
  <!-- ================================================================== -->

  <!-- B: JSZ Gateway &#x2014; MySQL (Config Pull through Firewall) -->
  <path d="M 1050 230 L 1000 230 L 1000 494 L 943 494" stroke="#7b1fa2" stroke-width="3" fill="none" stroke-dasharray="8,4"/>
  <path d="M 887 494 L 500 494 L 500 494" stroke="#7b1fa2" stroke-width="3" fill="none" marker-end="url(#arrowPurple)" stroke-dasharray="8,4"/>
  <circle cx="1000" cy="370" r="12" fill="#7b1fa2"/>
  <text x="1000" y="374" text-anchor="middle" font-family="Arial, sans-serif" font-size="9" font-weight="bold" fill="white">B</text>
  <text x="1015" y="420" font-family="Arial, sans-serif" font-size="7" fill="#7b1fa2" transform="rotate(-90, 1015, 420)">Pull API Configs :3306</text>

  <!-- C: JSZ Gateway &#x2014; Elasticsearch (Analytics Push through Firewall) -->
  <path d="M 1050 210 L 1000 210 L 1000 334 L 943 334" stroke="#f57f17" stroke-width="3" fill="none" stroke-dasharray="8,4"/>
  <path d="M 887 334 L 870 334 L 870 420" stroke="#f57f17" stroke-width="3" fill="none" marker-end="url(#arrowOrange)" stroke-dasharray="8,4"/>
  <circle cx="1000" cy="280" r="12" fill="#f57f17"/>
  <text x="1000" y="284" text-anchor="middle" font-family="Arial, sans-serif" font-size="9" font-weight="bold" fill="white">C</text>
  <text x="985" y="310" font-family="Arial, sans-serif" font-size="7" fill="#f57f17">Push Analytics :9200</text>

  <!-- ================================================================== -->
  <!--                            LEGEND                                    -->
  <!-- ================================================================== -->
  <rect x="15" y="630" width="1870" height="220" rx="10" fill="white" stroke="#9e9e9e" stroke-width="1"/>
  <text x="950" y="655" text-anchor="middle" font-family="Arial, sans-serif" font-size="14" font-weight="bold" fill="#424242">LEGEND</text>

  <!-- Component Legend Row -->
  <rect x="40" y="670" width="40" height="14" rx="3" fill="url(#openamGrad)"/>
  <text x="88" y="682" font-family="Arial, sans-serif" font-size="8" fill="#424242">OpenAM SSO</text>

  <rect x="160" y="670" width="40" height="14" rx="3" fill="url(#nodeGrad)"/>
  <text x="208" y="682" font-family="Arial, sans-serif" font-size="8" fill="#424242">API Gateway</text>

  <rect x="280" y="670" width="40" height="14" rx="3" fill="url(#dbGrad)"/>
  <text x="328" y="682" font-family="Arial, sans-serif" font-size="8" fill="#424242">MySQL (External)</text>

  <rect x="420" y="670" width="40" height="14" rx="3" fill="url(#redisGrad)"/>
  <text x="468" y="682" font-family="Arial, sans-serif" font-size="8" fill="#424242">Redis (SDP)</text>

  <rect x="550" y="670" width="40" height="14" rx="3" fill="url(#esGrad)"/>
  <text x="598" y="682" font-family="Arial, sans-serif" font-size="8" fill="#424242">Elasticsearch</text>

  <rect x="680" y="670" width="40" height="14" rx="3" fill="#9c27b0"/>
  <text x="728" y="682" font-family="Arial, sans-serif" font-size="8" fill="#424242">Control Plane</text>

  <rect x="810" y="670" width="40" height="14" rx="3" fill="#b71c1c"/>
  <text x="858" y="682" font-family="Arial, sans-serif" font-size="8" fill="#424242">Firewall</text>

  <rect x="920" y="670" width="40" height="14" rx="3" fill="#e65100"/>
  <text x="968" y="682" font-family="Arial, sans-serif" font-size="8" fill="#424242">JSZ Zone</text>

  <!-- Line Legend -->
  <line x1="1070" y1="677" x2="1110" y2="677" stroke="#424242" stroke-width="2"/>
  <text x="1120" y="682" font-family="Arial, sans-serif" font-size="8" fill="#424242">Data Flow</text>

  <line x1="1190" y1="677" x2="1230" y2="677" stroke="#7b1fa2" stroke-width="2" stroke-dasharray="8,4"/>
  <text x="1240" y="682" font-family="Arial, sans-serif" font-size="8" fill="#424242">Config/Admin</text>

  <line x1="1310" y1="677" x2="1350" y2="677" stroke="#c62828" stroke-width="2" stroke-dasharray="4,2,8,2"/>
  <text x="1360" y="682" font-family="Arial, sans-serif" font-size="8" fill="#424242">Security</text>

  <line x1="1420" y1="677" x2="1460" y2="677" stroke="#f57f17" stroke-width="2" stroke-dasharray="5,3"/>
  <text x="1470" y="682" font-family="Arial, sans-serif" font-size="8" fill="#424242">Analytics</text>

  <!-- Numbered Flow Descriptions -->
  <text x="950" y="708" text-anchor="middle" font-family="Arial, sans-serif" font-size="12" font-weight="bold" fill="#37474f">NUMBERED FLOW DESCRIPTIONS</text>

  <!-- Core Zone Flows -->
  <text x="480" y="730" text-anchor="middle" font-family="Arial, sans-serif" font-size="10" font-weight="bold" fill="#1b5e20"> CORE ZONE FLOWS </text>

  <circle cx="50" cy="750" r="8" fill="#e65100"/>
  <text x="50" y="754" text-anchor="middle" font-family="Arial, sans-serif" font-size="7" font-weight="bold" fill="white">1</text>
  <text x="66" y="754" font-family="Arial, sans-serif" font-size="8" fill="#424242">User Authentication: Corporate Users &#x2014; OpenAM SSO (OAuth 2.0 / OIDC)</text>

  <circle cx="50" cy="770" r="8" fill="#1976d2"/>
  <text x="50" y="774" text-anchor="middle" font-family="Arial, sans-serif" font-size="7" font-weight="bold" fill="white">2</text>
  <text x="66" y="774" font-family="Arial, sans-serif" font-size="8" fill="#424242">API Request: Consumer Apps &#x2014; Global Load Balancer &#x2014; Regional Gateways</text>

  <circle cx="50" cy="790" r="8" fill="#4527a0"/>
  <text x="50" y="794" text-anchor="middle" font-family="Arial, sans-serif" font-size="7" font-weight="bold" fill="white">5</text>
  <text x="66" y="794" font-family="Arial, sans-serif" font-size="8" fill="#424242">Config Management: Control Plane &#x2014; MySQL (external) for API definitions, plans, subscriptions</text>

  <circle cx="50" cy="810" r="8" fill="#455a64"/>
  <text x="50" y="814" text-anchor="middle" font-family="Arial, sans-serif" font-size="7" font-weight="bold" fill="white">7</text>
  <text x="66" y="814" font-family="Arial, sans-serif" font-size="8" fill="#424242">Backend Routing: Gateway &#x2014; Backend Services (mTLS/TLS) within Core Zone</text>

  <!-- JSZ Zone Flows -->
  <text x="1420" y="730" text-anchor="middle" font-family="Arial, sans-serif" font-size="10" font-weight="bold" fill="#e65100"> JSZ ZONE FLOWS </text>

  <circle cx="970" cy="750" r="10" fill="#1976d2"/>
  <text x="970" y="754" text-anchor="middle" font-family="Arial, sans-serif" font-size="8" font-weight="bold" fill="white">A</text>
  <text x="988" y="754" font-family="Arial, sans-serif" font-size="8" fill="#424242">API Request: JSZ Consumers &#x2014; Load Balancer &#x2014; Gateway Nodes (HTTPS :443)</text>

  <circle cx="970" cy="770" r="10" fill="#7b1fa2"/>
  <text x="970" y="774" text-anchor="middle" font-family="Arial, sans-serif" font-size="8" font-weight="bold" fill="white">B</text>
  <text x="988" y="774" font-family="Arial, sans-serif" font-size="8" fill="#424242">Config Sync: JSZ Gateway pulls API configs from MySQL (Core Zone) &#x2014; Through Firewall :3306</text>

  <circle cx="970" cy="790" r="10" fill="#f57f17"/>
  <text x="970" y="794" text-anchor="middle" font-family="Arial, sans-serif" font-size="8" font-weight="bold" fill="white">C</text>
  <text x="988" y="794" font-family="Arial, sans-serif" font-size="8" fill="#424242">Analytics: JSZ Gateway pushes events to Elasticsearch (Core Zone) &#x2014; Through Firewall :9200</text>

  <circle cx="970" cy="810" r="10" fill="#455a64"/>
  <text x="970" y="814" text-anchor="middle" font-family="Arial, sans-serif" font-size="8" font-weight="bold" fill="white">D</text>
  <text x="988" y="814" font-family="Arial, sans-serif" font-size="8" fill="#424242">JSZ Backend: Gateway routes to local backends within JSZ (no firewall) &#x2014; PII/MNPI stays in JSZ</text>

  <!-- Version -->
  <text x="1870" y="850" text-anchor="end" font-family="Arial, sans-serif" font-size="8" fill="#9e9e9e">v1.4 | Combined Architecture | Core Zone (K8s) + JSZ Zone (VM) | SCP + SDP | MySQL + ES External to K8s</text>
</svg>
